<svg xmlns="http://www.w3.org/2000/svg" width="64" height="64" viewBox="0 0 64 64">
  <defs>
    <linearGradient id="parchment" x1="7" y1="5" x2="53" y2="57" gradientUnits="userSpaceOnUse">
      <stop offset="0" stop-color="#fff1bd"/>
      <stop offset=".35" stop-color="#dcb66a"/>
      <stop offset=".72" stop-color="#a96d36"/>
      <stop offset="1" stop-color="#684025"/>
    </linearGradient>
    <filter id="grain" x="-20%" y="-20%" width="140%" height="140%">
      <feTurbulence type="fractalNoise" baseFrequency=".42" numOctaves="3" seed="17" result="noise"/>
      <feColorMatrix in="noise" type="saturate" values="0" result="mono"/>
      <feComponentTransfer in="mono" result="softNoise">
        <feFuncA type="table" tableValues="0 .18"/>
      </feComponentTransfer>
      <feBlend in="SourceGraphic" in2="softNoise" mode="multiply"/>
    </filter>
    <filter id="shadow" x="-30%" y="-30%" width="170%" height="170%">
      <feDropShadow dx="1.5" dy="2" stdDeviation="1.4" flood-color="#120c0a" flood-opacity=".85"/>
    </filter>
    <clipPath id="arrowClip">
      <path d="M7 5v49l13.5-10.4L29 56l8.5-4.8-8.4-12H51L7 5Z"/>
    </clipPath>
  </defs>
  <g filter="url(#shadow)">
    <path d="M7 5v49l13.5-10.4L29 56l8.5-4.8-8.4-12H51L7 5Z" fill="#211613" stroke="#0c0909" stroke-width="3" stroke-linejoin="round"/>
    <path d="M11 12v33l9.6-7.4 8.9 13.1 3.2-1.9-9-13h16.8L11 12Z" fill="url(#parchment)" stroke="#5c3925" stroke-width="1.2" stroke-linejoin="round" filter="url(#grain)"/>
    <g clip-path="url(#arrowClip)" opacity=".55" fill="none" stroke="#5b3927" stroke-width="1">
      <path d="M-4 17 42 2M-5 25 54 5M-4 34 62 11M-2 43 67 18M5 58 67 29M18 64 68 39"/>
      <path d="M14 7c7 9 13 18 20 28M23 4c5 10 12 20 20 31" opacity=".5"/>
    </g>
    <path d="M12 12v31l8.6-6.6 8.2 12.1 1.8-1.1-8.2-12h16L12 12Z" fill="none" stroke="#fff0b5" stroke-opacity=".6" stroke-width=".9" stroke-linejoin="round"/>
  </g>
</svg>
